<svg width="452" height="598" viewBox="0 0 452 598" fill="none" xmlns="http://www.w3.org/2000/svg">
<path d="M452 0V598L419.714 568.281L387.429 598L355.143 568.281L322.857 598L290.571 568.281L258.286 598L226 568.281L193.714 598L161.429 568.281L129.143 598L96.8571 568.281L64.5714 598L32.2857 568.281L0 598V0L32.2857 29.7188L64.5714 0L96.8571 29.7188L129.143 0L161.429 29.7188L193.714 0L226 29.7188L258.286 0L290.571 29.7188L322.857 0L355.143 29.7188L387.429 0L419.714 29.7188L452 0Z" fill="#F7F8FA"/>
</svg>
