<svg width="377" height="432" viewBox="0 0 377 432" fill="none" xmlns="http://www.w3.org/2000/svg">
<g opacity="0.15">
<path d="M241.394 43.6117L241.394 120.018L308.573 162.447L375.752 120.018L375.752 43.6117L308.573 1.18287L241.394 43.6117Z" stroke="#F56A2B" stroke-width="2"/>
<path d="M1 251.326V174.92L68.1791 132.491L135.358 174.92V251.326L68.1791 293.755L1 251.326Z" stroke="#F56A2B" stroke-width="2"/>
<path d="M237.354 310.538L237.354 387.414L306.048 430.118L374.742 387.414L374.742 310.538L306.048 267.834L237.354 310.538Z" stroke="#F56A2B" stroke-width="2"/>
<path d="M159.579 174.919L159.579 251.326L226.759 293.755L293.938 251.326L293.938 174.919L226.759 132.49L159.579 174.919Z" stroke="#F56A2B" stroke-width="2"/>
<path d="M80.7948 310.527L80.7948 387.425L146.964 430.106L213.133 387.425L213.133 310.527L146.964 267.846L80.7948 310.527Z" stroke="#F56A2B" stroke-width="2"/>
</g>
</svg>
