<svg width="457" height="432" viewBox="0 0 457 432" fill="none" xmlns="http://www.w3.org/2000/svg">
<g opacity="0.15">
<path d="M321.189 43.6117L321.189 120.018L388.368 162.447L455.547 120.018L455.547 43.6117L388.368 1.18287L321.189 43.6117Z" stroke="#F56A2B" stroke-width="2"/>
<path d="M80.7947 251.326V174.919L147.974 132.49L215.153 174.919V251.326L147.974 293.755L80.7947 251.326Z" stroke="#F56A2B" stroke-width="2"/>
<path d="M1 387.415V310.535L69.1891 267.836L137.378 310.535V387.415L69.1891 430.115L1 387.415Z" stroke="#F56A2B" stroke-width="2"/>
<path d="M317.149 310.539L317.149 387.414L385.843 430.118L454.537 387.414L454.537 310.539L385.843 267.835L317.149 310.539Z" stroke="#F56A2B" stroke-width="2"/>
<path d="M239.374 174.919L239.374 251.326L306.553 293.755L373.732 251.326L373.732 174.919L306.553 132.49L239.374 174.919Z" stroke="#F56A2B" stroke-width="2"/>
<path d="M160.59 310.528L160.59 387.425L226.759 430.106L292.928 387.425L292.928 310.528L226.759 267.847L160.59 310.528Z" stroke="#F56A2B" stroke-width="2"/>
</g>
</svg>
