<svg width="47" height="36" viewBox="0 0 47 36" fill="none" xmlns="http://www.w3.org/2000/svg">
<path d="M41.6879 5.53846H35.8227V2.76923C35.8227 1.24228 34.6083 0 33.1157 0H25.897C24.4044 0 23.19 1.24228 23.19 2.76923V5.53846H15.3397V2.76923C15.3397 2.25951 14.9356 1.84615 14.4374 1.84615H8.12101C7.62274 1.84615 7.21868 2.25951 7.21868 2.76923V5.53846H4.51167C2.02394 5.53846 0 7.60892 0 10.1538V28.6154C0 31.1603 2.02394 33.2308 4.51167 33.2308H16.5842C18.7908 34.9663 21.5512 36 24.5435 36C27.5358 36 30.2961 34.9663 32.5028 33.2308H41.6879C44.1756 33.2308 46.1995 31.1603 46.1995 28.6154V10.1538C46.1995 7.60892 44.1756 5.53846 41.6879 5.53846ZM24.9947 2.76923C24.9947 2.26025 25.3995 1.84615 25.897 1.84615H33.1157C33.6132 1.84615 34.018 2.26025 34.018 2.76923V5.53846H24.9947V2.76923ZM9.02334 3.69231H13.535V5.53846H9.02334V3.69231ZM24.5435 34.1538C18.3242 34.1538 13.2643 28.9777 13.2643 22.6154C13.2643 16.2531 18.3242 11.0769 24.5435 11.0769C30.7628 11.0769 35.8227 16.2531 35.8227 22.6154C35.8227 28.9777 30.7628 34.1538 24.5435 34.1538ZM44.3949 28.6154C44.3949 30.1423 43.1805 31.3846 41.6879 31.3846H34.4201C36.417 29.0341 37.6273 25.9667 37.6273 22.6154C37.6273 15.2351 31.7579 9.23077 24.5435 9.23077C17.3291 9.23077 11.4596 15.2351 11.4596 22.6154C11.4596 25.9667 12.67 29.0341 14.6669 31.3846H4.51167C3.01903 31.3846 1.80467 30.1423 1.80467 28.6154C1.80467 28.6154 1.80467 13.851 1.80467 13.842C1.80638 14.7297 4.57935 14.7692 5.14331 14.7692C5.64158 14.7692 6.04564 14.3559 6.04564 13.8462C6.04564 13.3364 5.64158 12.9231 5.14322 12.9231C3.46524 12.9231 1.80467 12.1382 1.80467 10.1538C1.80467 8.62689 3.01903 7.38462 4.51167 7.38462H41.6879C43.1805 7.38462 44.3949 8.62689 44.3949 10.1538V28.6154Z" fill="#EB6320"/>
<path d="M8.75269 9.23145C8.57168 9.23145 8.40466 9.23145 8.21129 9.23145C7.71411 9.23145 7.30896 9.64589 7.30896 10.1545C7.30896 10.5318 7.5322 10.8569 7.85036 10.9998V28.6151C7.85036 29.1248 8.25442 29.5382 8.75269 29.5382C9.25096 29.5382 9.65502 29.1248 9.65502 28.6151V10.1545C9.65502 9.64478 9.25096 9.23145 8.75269 9.23145Z" fill="#EB6320"/>
<path d="M4.6018 9.23145C4.10461 9.23145 3.69946 9.64602 3.69946 10.1548C3.69946 10.6635 4.10461 11.0781 4.6018 11.0781C5.09898 11.0781 5.50413 10.6635 5.50413 10.1548C5.50413 9.64602 5.09898 9.23145 4.6018 9.23145Z" fill="#EB6320"/>
<path d="M33.1381 19.7998C32.9894 19.3236 32.4698 19.0482 32.0048 19.2015C31.5378 19.3555 31.2707 19.8842 31.4192 20.3619C32.2322 22.9781 31.5441 25.8943 29.6478 27.8365C26.8662 30.6854 22.219 30.6767 19.439 27.8367C18.1058 26.4748 17.3247 24.5638 17.3247 22.615C17.3247 19.077 19.9656 15.9266 23.3666 15.3329C24.6394 15.1107 25.9669 15.2549 27.1691 15.7346C27.6185 15.9139 28.1639 15.6682 28.3377 15.2094C28.5181 14.7349 28.2881 14.1986 27.8234 14.014C24.8482 12.8322 21.4075 13.3703 18.9124 15.4036C18.6503 15.6172 18.4 15.8458 18.163 16.0882C16.4835 17.8063 15.5182 20.1857 15.52 22.615C15.5227 26.3215 17.7907 29.7748 21.1461 31.1688C24.4687 32.5492 28.3888 31.735 30.9238 29.1418C32.6143 27.4125 33.5407 25.0248 33.5545 22.615C33.5599 21.667 33.4241 20.7158 33.1381 19.7998Z" fill="#EB6320"/>
<path d="M39.8833 9.23145C38.3906 9.23145 37.1763 10.4738 37.1763 12.0009C37.1763 13.5279 38.3906 14.7703 39.8833 14.7703C41.3759 14.7703 42.5903 13.5279 42.5903 12.0009C42.5903 10.4738 41.3759 9.23145 39.8833 9.23145ZM39.8833 12.924C39.3857 12.924 38.9809 12.5099 38.9809 12.0009C38.9809 11.4919 39.3857 11.0777 39.8833 11.0777C40.3808 11.0777 40.7856 11.4919 40.7856 12.0009C40.7856 12.5099 40.3808 12.924 39.8833 12.924Z" fill="#EB6320"/>
<path d="M30.4989 17.8163C30.9972 17.8163 31.4012 17.4031 31.4012 16.8935C31.4012 16.3839 30.9972 15.9707 30.4989 15.9707C30.0005 15.9707 29.5966 16.3839 29.5966 16.8935C29.5966 17.4031 30.0005 17.8163 30.4989 17.8163Z" fill="#EB6320"/>
</svg>
