<svg width="42" height="39" viewBox="0 0 42 39" fill="none" xmlns="http://www.w3.org/2000/svg">
<path d="M20.3226 14.8994V18.623H42.0001V14.8994H20.3226ZM40.6452 17.3818H21.6775V16.1406H40.6452V17.3818Z" fill="#EB6320"/>
<path d="M21.6775 13.6582H23.0323V12.722L31.1614 6.99177L39.2904 12.722V13.6582H40.6452V12.1111L31.1614 5.4248L21.6775 12.1111V13.6582Z" fill="#EB6320"/>
<path d="M42 31.6604C42 29.9184 41.3463 28.2105 40.1588 26.8503L39.5654 26.1705C39.1677 25.7143 38.5736 25.4523 37.9355 25.4523C37.4295 25.4523 36.9553 25.623 36.5806 25.9185V24.8315H32.5161V28.5563H34.5884C34.1209 29.5297 33.871 30.5882 33.871 31.6604C33.871 33.5023 35.3389 35.032 37.2581 35.3293V37.2476H33.871V31.6604V31.0396H28.4516V37.2476H21.6774V35.3293C23.5965 35.0326 25.0645 33.5029 25.0645 31.6604C25.0645 29.9184 24.4108 28.2105 23.2233 26.8503L22.6299 26.1705C22.2322 25.7143 21.6381 25.4523 21 25.4523C20.3619 25.4523 19.7678 25.7143 19.3708 26.1699L18.7767 26.8503C17.5892 28.2105 16.9355 29.9184 16.9355 31.6604C16.9355 33.5023 18.4035 35.032 20.3226 35.3293V37.2476H14.2258V31.0396H8.80645V37.2476H4.74194V35.3293C6.66106 35.0326 8.12903 33.5029 8.12903 31.6604C8.12903 30.1108 7.60877 28.5898 6.65903 27.3147H7.45161V23.5898H3.3871V25.5671C3.01858 25.6832 2.68529 25.8825 2.43532 26.1699L1.84123 26.8503C0.65371 28.2105 0 29.9184 0 31.6604C0 33.5023 1.46797 35.032 3.3871 35.3293V37.2476H1.35484V35.3852H0V38.4893H3.3871H4.74194H20.3226H21.6774H37.2581H38.6129H42V35.3852H40.6452V37.2476H38.6129V35.3293C40.532 35.032 42 33.5023 42 31.6604ZM4.74194 24.8315H6.09677V26.0731H5.58803C5.35229 25.839 5.06371 25.6689 4.74194 25.5671V24.8315ZM3.3871 31.0396V34.0554C2.22194 33.7779 1.35484 32.8144 1.35484 31.6604C1.35484 30.199 1.90355 28.7668 2.89868 27.6263L3.49277 26.9453C3.633 26.7851 3.84097 26.6939 4.06452 26.6939C4.28806 26.6939 4.49603 26.7851 4.63626 26.9459L5.23036 27.6263C6.22548 28.7668 6.77419 30.199 6.77419 31.6604C6.77419 32.8144 5.9071 33.7779 4.74194 34.0554V31.0396H3.3871ZM12.871 37.2476H10.1613V32.2812H12.871V37.2476ZM20.3226 31.0396V34.0554C19.1574 33.7779 18.2903 32.8144 18.2903 31.6604C18.2903 30.199 18.839 28.7668 19.8342 27.6263L20.4283 26.9453C20.5685 26.7851 20.7765 26.6939 21 26.6939C21.2235 26.6939 21.4315 26.7851 21.5717 26.9459L22.1658 27.6263C23.161 28.7668 23.7097 30.199 23.7097 31.6604C23.7097 32.8144 22.8426 33.7779 21.6774 34.0554V31.0396H20.3226ZM32.5161 37.2476H29.8065V32.2812H32.5161V37.2476ZM33.871 27.3147V26.0731H35.2258V27.3147H33.871ZM37.2581 31.0396V34.0554C36.0929 33.7779 35.2258 32.8144 35.2258 31.6604C35.2258 30.199 35.7745 28.7668 36.7696 27.6263L37.3637 26.9453C37.504 26.7851 37.7119 26.6939 37.9355 26.6939C38.159 26.6939 38.367 26.7851 38.5072 26.9459L39.1013 27.6263C40.0965 28.7668 40.6452 30.199 40.6452 31.6604C40.6452 32.8144 39.7781 33.7779 38.6129 34.0554V31.0396H37.2581Z" fill="#EB6320"/>
<path d="M23.0323 19.8652H21.6775V24.832H23.0323V19.8652Z" fill="#EB6320"/>
<path d="M40.6451 19.8652H39.2903V24.832H40.6451V19.8652Z" fill="#EB6320"/>
<path d="M36.5806 19.8652H32.5161V23.5898H36.5806V19.8652ZM35.2258 22.3483H33.871V21.1068H35.2258V22.3483Z" fill="#EB6320"/>
<path d="M29.8065 19.8652H25.7419V23.5898H29.8065V19.8652ZM28.4516 22.3483H27.0968V21.1068H28.4516V22.3483Z" fill="#EB6320"/>
<path d="M12.8709 8.69043H8.8064V12.416H12.8709V8.69043ZM11.5161 11.1742H10.1612V9.93229H11.5161V11.1742Z" fill="#EB6320"/>
<path d="M18.2903 8.69043H14.2258V12.416H18.2903V8.69043ZM16.9355 11.1742H15.5807V9.93229H16.9355V11.1742Z" fill="#EB6320"/>
<path d="M7.45161 8.69043H3.38708V12.416H7.45161V8.69043ZM6.09677 11.1742H4.74193V9.93229H6.09677V11.1742Z" fill="#EB6320"/>
<path d="M12.8709 13.6582H8.8064V17.3828H12.8709V13.6582ZM11.5161 16.1413H10.1612V14.8997H11.5161V16.1413Z" fill="#EB6320"/>
<path d="M18.2903 13.6582H14.2258V17.3828H18.2903V13.6582ZM16.9355 16.1413H15.5807V14.8997H16.9355V16.1413Z" fill="#EB6320"/>
<path d="M7.45161 13.6582H3.38708V17.3828H7.45161V13.6582ZM6.09677 16.1413H4.74193V14.8997H6.09677V16.1413Z" fill="#EB6320"/>
<path d="M12.8709 18.623H8.8064V22.3477H12.8709V18.623ZM11.5161 21.1061H10.1612V19.8646H11.5161V21.1061Z" fill="#EB6320"/>
<path d="M18.2903 18.623H14.2258V22.3477H18.2903V18.623ZM16.9355 21.1061H15.5807V19.8646H16.9355V21.1061Z" fill="#EB6320"/>
<path d="M3.38708 22.3477H7.45161V18.623H3.38708V22.3477ZM4.74193 19.8646H6.09677V21.1061H4.74193V19.8646Z" fill="#EB6320"/>
<path d="M8.8064 27.3154H12.8709V23.5898H8.8064V27.3154ZM10.1612 24.8317H11.5161V26.0736H10.1612V24.8317Z" fill="#EB6320"/>
<path d="M14.2258 27.3154H18.2903V23.5898H14.2258V27.3154ZM15.5807 24.8317H16.9355V26.0736H15.5807V24.8317Z" fill="#EB6320"/>
<path d="M25.7419 28.5557H29.8065V24.832H25.7419V28.5557ZM27.0968 26.0732H28.4516V27.3145H27.0968V26.0732Z" fill="#EB6320"/>
<path d="M1.35484 7.44954H20.3226V10.5534H21.6774V6.20801H0V26.6934H1.35484V7.44954Z" fill="#EB6320"/>
<path d="M3.38707 3.72437H18.2903V4.96582H19.6451V2.48291H18.2903V0H3.38707V2.48291H2.03223V4.96582H3.38707V3.72437ZM4.7419 1.24146H16.9354V2.48291H4.7419V1.24146Z" fill="#EB6320"/>
</svg>
