<svg width="39" height="43" viewBox="0 0 39 43" fill="none" xmlns="http://www.w3.org/2000/svg">
<path d="M38.5294 15.5567C38.2373 15.3861 37.8752 15.3781 37.5759 15.5358L31.3281 18.8267V16.0066C31.3281 15.4844 30.8954 15.061 30.3619 15.061H28.7906C30.7502 13.5057 32.0053 11.1318 32.0053 8.47601C32.0054 3.80238 28.1198 0 23.3437 0C19.2673 0 15.84 2.77046 14.9235 6.4882C13.7245 5.07249 11.9148 4.16905 9.89342 4.16905C6.29191 4.16905 3.362 7.0363 3.362 10.5606C3.362 12.3145 4.08789 13.9052 5.26075 15.0613H4.37854C3.84491 15.0613 3.41231 15.4846 3.41231 16.0068V20.2989H0.966237C0.432604 20.2989 0 20.7222 0 21.2444V24.9627C0 25.485 0.432604 25.9083 0.966237 25.9083H3.41222V30.2004C3.41222 30.7226 3.84483 31.1459 4.37846 31.1459H15.7769L10.5398 40.9766C10.2931 41.4396 10.4768 42.0107 10.95 42.2521C11.0927 42.3249 11.2453 42.3594 11.3957 42.3594C11.7443 42.3594 12.081 42.1741 12.2533 41.8508L17.37 32.2458L22.4869 41.8508C22.6592 42.1743 22.9959 42.3594 23.3445 42.3594C23.4949 42.3594 23.6477 42.3249 23.7903 42.2521C24.2635 42.0107 24.4471 41.4396 24.2003 40.9766L18.9632 31.1459H30.3619C30.8954 31.1459 31.3281 30.7226 31.3281 30.2004V27.3802L37.5759 30.671C37.7191 30.7464 37.8764 30.784 38.0338 30.784C38.2054 30.784 38.3769 30.7392 38.5294 30.6502C38.8214 30.4795 39 30.1712 39 29.8385V16.3684C39 16.0356 38.8214 15.7274 38.5294 15.5567ZM3.41231 24.017H1.93247V22.1896H3.41231V24.017ZM23.3437 1.89101C27.0541 1.89101 30.0729 4.84505 30.0729 8.47609C30.0729 12.1071 27.0542 15.0611 23.3437 15.0611C19.6333 15.0611 16.6146 12.1071 16.6146 8.47609C16.6147 4.84514 19.6334 1.89101 23.3437 1.89101ZM15.9654 12.9107C16.4815 13.7301 17.1361 14.4572 17.897 15.0611H14.5261C15.144 14.452 15.6364 13.7216 15.9654 12.9107ZM9.89342 6.05998C12.4293 6.05998 14.4925 8.0789 14.4925 10.5605C14.4925 13.0422 12.4294 15.0612 9.89342 15.0612C7.35757 15.0612 5.29439 13.0423 5.29439 10.5605C5.29448 8.0789 7.35757 6.05998 9.89342 6.05998ZM29.3957 20.4093V25.7971V29.2545H17.3875C17.3858 29.2545 17.3841 29.2545 17.3823 29.2545H17.3568C17.3557 29.2545 17.3546 29.2545 17.3535 29.2545H5.3447V24.9624V21.2441V16.952H29.3957V20.4093ZM37.0676 28.2555L31.3281 25.2323V20.9742L37.0676 17.951V28.2555Z" fill="#EB6320"/>
</svg>
