<svg width="26" height="26" viewBox="0 0 26 26" fill="none" xmlns="http://www.w3.org/2000/svg">
<path d="M13 0C5.85 0 0 5.85 0 13C0 20.15 5.85 26 13 26C20.15 26 26 20.15 26 13C26 5.85 20.15 0 13 0ZM14.3 22.1H11.7V19.5H14.3V22.1ZM17.03 12.09L15.86 13.26C14.8201 14.1701 14.3 14.95 14.3 16.9H11.7V16.25C11.7 14.82 12.22 13.52 13.26 12.61L14.82 10.92C15.34 10.53 15.6 9.88 15.6 9.1C15.6 7.67 14.43 6.5 13 6.5C11.57 6.5 10.4 7.67 10.4 9.1H7.8C7.8 6.24 10.14 3.9 13 3.9C15.86 3.9 18.2 6.24 18.2 9.1C18.2 10.27 17.68 11.31 17.03 12.09Z" fill="#EB6320"/>
</svg>
