<svg width="44" height="45" viewBox="0 0 44 45" fill="none" xmlns="http://www.w3.org/2000/svg">
<path d="M43.0045 28.6809H42.0091V3.79404C42.0091 3.24434 41.5633 2.79856 41.0136 2.79856H22.9955V1.80309C22.9955 1.25339 22.5497 0.807617 22 0.807617C21.4503 0.807617 21.0045 1.25339 21.0045 1.80309V2.79856H2.98643C2.43672 2.79856 1.99095 3.24434 1.99095 3.79404V28.6809H0.995475C0.445774 28.6809 0 29.1266 0 29.6763C0 30.226 0.445774 30.6718 0.995475 30.6718H21.0045V35.2522L13.5348 43.127C13.1564 43.5259 13.173 44.1559 13.5719 44.5343C13.9707 44.9129 14.6009 44.896 14.9792 44.4972L21.0045 38.1451V43.8121C21.0045 44.3618 21.4503 44.8075 22 44.8075C22.5497 44.8075 22.9955 44.3618 22.9955 43.8121V38.1451L29.0208 44.4972C29.2165 44.7035 29.4795 44.8075 29.7432 44.8075C29.9892 44.8075 30.2356 44.717 30.4281 44.5343C30.827 44.1559 30.8436 43.5259 30.4652 43.127L22.9955 35.2522V30.6718H43.0045C43.5542 30.6718 44 30.226 44 29.6763C44 29.1266 43.5543 28.6809 43.0045 28.6809ZM3.9819 4.78951H40.0181V28.6809H3.9819V4.78951Z" fill="#EB6320"/>
</svg>
