<svg width="42" height="43" viewBox="0 0 42 43" fill="none" xmlns="http://www.w3.org/2000/svg">
<path d="M20.7642 0.499023C9.28777 0.499023 0 9.78581 0 21.2632C0 32.6546 9.20341 42.1902 20.7642 42.1902C32.2006 42.1902 41.6912 32.7682 41.6912 21.2632C41.6912 9.68981 32.1432 0.499023 20.7642 0.499023ZM20.7642 39.7636C10.6618 39.7636 2.42656 31.4554 2.42656 21.2632C2.42656 11.1608 10.6618 2.92558 20.7642 2.92558C30.9564 2.92558 39.2646 11.1608 39.2646 21.2632C39.2646 31.4554 30.9564 39.7636 20.7642 39.7636Z" fill="#EB6320"/>
<path d="M22.6544 21.2634L26.6763 17.2414C27.1533 16.7644 27.1533 15.991 26.6763 15.514C26.1994 15.037 25.426 15.037 24.949 15.514L20.0633 20.3997C19.5863 20.8767 19.5863 21.65 20.0633 22.127L24.949 27.0127C25.4259 27.4896 26.1993 27.4897 26.6763 27.0127C27.1533 26.5357 27.1533 25.7624 26.6763 25.2854L22.6544 21.2634Z" fill="#EB6320"/>
<path d="M20.7642 5.38477C12.0182 5.38477 4.88574 12.5013 4.88574 21.2632C4.88574 30.0536 12.0403 37.3046 20.7642 37.3046C29.5172 37.3046 36.8055 30.0455 36.8055 21.2632C36.8055 12.5443 29.5599 5.38477 20.7642 5.38477ZM31.1534 29.9251L30.4275 29.1991C29.9505 28.7221 29.1771 28.7221 28.7001 29.1991C28.2231 29.6761 28.2231 30.4495 28.7001 30.9265L29.426 31.6523C27.3535 33.3937 24.776 34.5413 21.9856 34.8033V33.6403C21.9856 32.9658 21.4387 32.4189 20.7641 32.4189C20.0896 32.4189 19.5427 32.9658 19.5427 33.6403V34.805C16.7631 34.5502 14.2251 33.4357 12.1916 31.726L12.9911 30.9266C13.4681 30.4496 13.4681 29.6762 12.9911 29.1992C12.5142 28.7222 11.7408 28.7222 11.2638 29.1992L10.4707 29.9923C8.7539 27.9217 7.63467 25.3279 7.38339 22.4847H8.55001C9.22456 22.4847 9.77143 21.9378 9.77143 21.2632C9.77143 20.5887 9.22456 20.0418 8.55001 20.0418H7.38469C7.63728 17.2529 8.74511 14.7073 10.444 12.6704L11.2638 13.4902C11.7408 13.9671 12.5142 13.9672 12.9912 13.4902C13.4682 13.0132 13.4682 12.2399 12.9912 11.7629L12.1714 10.943C14.2083 9.24413 16.7539 8.1363 19.5428 7.88371V9.04903C19.5428 9.72358 20.0897 10.2705 20.7642 10.2705C21.4388 10.2705 21.9856 9.72358 21.9856 9.04903V7.88241C24.8289 8.1337 27.4227 9.25292 29.4932 10.9698L28.7002 11.7628C27.9283 12.5346 28.4855 13.8479 29.5638 13.8479C29.8764 13.8479 30.189 13.7287 30.4275 13.4902L31.2269 12.6907C32.9367 14.7242 34.0512 17.2623 34.3059 20.0418H33.1413C32.4667 20.0418 31.9199 20.5887 31.9199 21.2632C31.9199 21.9378 32.4667 22.4847 33.1413 22.4847H34.3044C34.0424 25.2751 32.8948 27.8526 31.1534 29.9251Z" fill="#EB6320"/>
</svg>
