<svg width="42" height="37" viewBox="0 0 42 37" fill="none" xmlns="http://www.w3.org/2000/svg">
<path d="M32.1368 14.2773H7.81633C6.37966 14.2773 5.21057 15.4464 5.21057 16.8831V18.6203C5.21057 24.8185 8.63454 30.44 14.1448 33.2907C14.5705 33.5096 15.095 33.3445 15.3157 32.9172C15.5346 32.4915 15.3695 31.967 14.9422 31.7463C10.0121 29.1961 6.94772 24.167 6.94772 18.6202V16.883C6.94772 16.4036 7.33687 16.0144 7.81633 16.0144H32.1368C32.6162 16.0144 33.0054 16.4036 33.0054 16.883V18.6202C33.0054 24.1669 29.941 29.1961 25.0092 31.7445C24.5819 31.9651 24.4168 32.4897 24.6357 32.9154C24.7903 33.2141 25.0943 33.3861 25.4087 33.3861C25.5442 33.3861 25.6797 33.3549 25.8065 33.2888C31.3186 30.4398 34.7425 24.8201 34.7425 18.6201V16.8829C34.7425 15.4464 33.5734 14.2773 32.1368 14.2773Z" fill="#EB6320"/>
<path d="M39.8897 32.1842C39.7542 31.8594 39.438 31.6475 39.0871 31.6475H0.869366C0.518484 31.6475 0.202291 31.8594 0.0667919 32.1842C-0.0687076 32.5091 0.00596372 32.8826 0.254407 33.131L2.2018 35.0801C3.35184 36.2284 4.87702 36.8608 6.50131 36.8608H33.4518C35.0761 36.8608 36.603 36.2285 37.7548 35.0801L39.7022 33.131C39.9505 32.8826 40.0252 32.5091 39.8897 32.1842ZM36.5249 33.8519C35.7049 34.6719 34.6122 35.1235 33.4536 35.1235H6.50131C5.34264 35.1235 4.24993 34.6719 3.43001 33.8519L2.96448 33.3864H36.9904L36.5249 33.8519Z" fill="#EB6320"/>
<path d="M40.0114 18.3786C37.6715 16.8742 33.9331 18.5072 33.5144 18.6965C33.0783 18.8963 32.8838 19.4105 33.0835 19.8483C33.2833 20.286 33.7958 20.4789 34.2353 20.2791C35.0726 19.8987 37.7583 18.9971 39.0716 19.8431C39.664 20.2235 39.954 20.9618 39.954 22.0944C39.954 25.5722 32.9393 27.6743 30.231 28.1919L29.6161 28.3135C29.1453 28.4056 28.8396 28.8624 28.9317 29.3332C29.0133 29.7467 29.3763 30.0333 29.7828 30.0333C29.8385 30.0333 29.894 30.0281 29.9513 30.0159L30.5611 29.8961C31.0162 29.8092 41.6912 27.716 41.6912 22.0944C41.6912 20.3469 41.125 19.0978 40.0114 18.3786Z" fill="#EB6320"/>
<path d="M26.7394 7.00188C28.1517 5.23689 28.1517 2.47307 26.7394 0.708078C26.4388 0.332848 25.8951 0.27031 25.5182 0.572578C25.1429 0.873136 25.0821 1.41855 25.3827 1.79378C26.2773 2.91076 26.2773 4.79912 25.381 5.9196C23.9669 7.68459 23.9669 10.4484 25.381 12.2134C25.5529 12.4288 25.8048 12.54 26.0602 12.54C26.2495 12.54 26.4423 12.4775 26.6022 12.3489C26.9774 12.0483 27.0382 11.5011 26.7377 11.1277C25.8413 10.0106 25.8413 8.12236 26.7394 7.00188Z" fill="#EB6320"/>
<path d="M21.5209 7.00165C22.935 5.23666 22.935 2.47284 21.5209 0.707847C21.2222 0.332618 20.675 0.271789 20.2997 0.572347C19.9245 0.872905 19.8637 1.42011 20.1642 1.79355C21.0606 2.91053 21.0606 4.79889 20.1625 5.91936C18.7502 7.68436 18.7502 10.4482 20.1625 12.2132C20.3345 12.4285 20.5864 12.5398 20.8417 12.5398C21.031 12.5398 21.2222 12.4772 21.3837 12.3487C21.7589 12.0481 21.8198 11.5027 21.5192 11.1275C20.6245 10.0104 20.6245 8.12213 21.5209 7.00165Z" fill="#EB6320"/>
<path d="M16.3163 7.00384C17.7286 5.23884 17.7286 2.47503 16.3163 0.710031C16.0175 0.334801 15.472 0.272263 15.0951 0.574531C14.7216 0.873298 14.6608 1.42051 14.9596 1.79403C15.8542 2.911 15.8542 4.79936 14.9579 5.91984C13.5438 7.68483 13.5438 10.4486 14.9579 12.2136C15.1298 12.429 15.3817 12.5403 15.6371 12.5403C15.8264 12.5403 16.0192 12.4777 16.1791 12.3509C16.5543 12.0504 16.6151 11.5032 16.3146 11.1297C15.4182 10.0109 15.4182 8.12431 16.3163 7.00384Z" fill="#EB6320"/>
</svg>
