<svg width="42" height="43" viewBox="0 0 42 43" fill="none" xmlns="http://www.w3.org/2000/svg">
<path d="M32.5404 12.2543C33.3135 10.4929 33.8629 8.85434 33.8629 7.75404C33.8629 3.92377 30.7468 0.807617 26.9169 0.807617C23.0866 0.807617 19.9705 3.92377 19.9705 7.75404C19.9705 8.6837 20.3685 10.0018 20.9565 11.4497L13.0456 9.47535L0 11.3424V40.8817L12.9665 39.0272L26.8635 42.4988L41.6774 40.6469V11.1117L32.5404 12.2543ZM39.9409 13.079V26.0896L27.785 27.6091V21.027C28.3585 20.1059 30.1651 17.1467 31.6668 14.1136L39.9409 13.079ZM13.8992 26.2388L26.0485 29.2711V40.5048L13.904 37.4714L13.8992 26.2388ZM26.9169 2.54413C29.7897 2.54413 32.1264 4.88125 32.1264 7.75404C32.1264 8.83691 31.3485 10.796 30.3295 12.8905L30.3102 12.9306C29.1691 15.277 27.7586 17.7061 26.9169 19.1109C26.0062 17.5911 24.4306 14.8715 23.2469 12.3507L23.1041 12.0469C22.2894 10.2811 21.707 8.69 21.707 7.75404C21.707 4.88125 24.0441 2.54413 26.9169 2.54413ZM26.0485 21.027V27.4808L13.8984 24.4488L13.8929 11.4764L21.8494 13.4622C23.4012 16.7108 25.4338 20.0399 26.0485 21.027ZM12.1563 11.3565L12.1619 24.3624L1.73651 25.8548V12.8482L12.1563 11.3565ZM1.73651 27.6088L12.1626 26.1167L12.1671 37.3876L1.73651 38.8789V27.6088ZM27.785 40.6332V29.3594L39.9409 27.8395V39.1137L27.785 40.6332Z" fill="#EB6320"/>
</svg>
