<svg width="43" height="43" viewBox="0 0 43 43" fill="none" xmlns="http://www.w3.org/2000/svg">
<path d="M42.0945 21.404V14.9828C42.0945 14.7935 42.0193 14.6121 41.8855 14.4783C41.7517 14.3445 41.5703 14.2693 41.381 14.2693H40.944L42.0579 10.9276L40.7041 10.4763L39.4399 14.2693H39.2407V9.98851H37.8137V14.2693H37.6145L36.3502 10.4763L34.9964 10.9276L36.1103 14.2693H35.6733C35.4841 14.2693 35.3026 14.3445 35.1688 14.4783C35.035 14.6121 34.9599 14.7935 34.9599 14.9828V21.404H25.5096L24.4903 17.8366H31.3925C31.96 17.836 32.504 17.6102 32.9053 17.209C33.3066 16.8077 33.5323 16.2637 33.5329 15.6962V2.1404C33.5323 1.57293 33.3066 1.0289 32.9053 0.627637C32.504 0.226378 31.96 0.000660887 31.3925 0H11.4155C10.848 0.000660887 10.304 0.226378 9.90276 0.627637C9.5015 1.0289 9.27578 1.57293 9.27512 2.1404V15.6962C9.27578 16.2637 9.5015 16.8077 9.90276 17.209C10.304 17.6102 10.848 17.836 11.4155 17.8366H18.3178L17.2985 21.404H7.24388L7.84141 17.224C7.85587 17.1228 7.8484 17.0197 7.81951 16.9216C7.79062 16.8235 7.74098 16.7328 7.67396 16.6555C7.60695 16.5783 7.52411 16.5164 7.43108 16.474C7.33804 16.4316 7.23697 16.4096 7.13472 16.4097H6.42126V14.2693C6.42126 13.7016 6.19575 13.1572 5.79435 12.7558C5.39295 12.3544 4.84853 12.1289 4.28086 12.1289C3.71319 12.1289 3.16878 12.3544 2.76738 12.7558C2.36597 13.1572 2.14047 13.7016 2.14047 14.2693V16.4097H1.427C1.32478 16.4097 1.22376 16.4317 1.13076 16.4741C1.03777 16.5165 0.954981 16.5785 0.888003 16.6557C0.821025 16.7329 0.771422 16.8236 0.742552 16.9217C0.713683 17.0197 0.706221 17.1228 0.720673 17.224L1.31784 21.404H0.713538C0.524315 21.404 0.342843 21.4791 0.209042 21.6129C0.0752412 21.7467 7.28572e-05 21.9282 7.28572e-05 22.1174V24.9713C7.28572e-05 25.1605 0.0752412 25.342 0.209042 25.4758C0.342843 25.6096 0.524315 25.6847 0.713538 25.6847H2.72515L0.00970462 41.9772C-0.0073284 42.0794 -0.00189194 42.1841 0.0256358 42.284C0.0531636 42.3839 0.102122 42.4766 0.169106 42.5556C0.23609 42.6347 0.319493 42.6982 0.413513 42.7418C0.507533 42.7854 0.609915 42.8079 0.713538 42.8079H3.5674C3.7363 42.8079 3.89973 42.748 4.02862 42.6388C4.1575 42.5297 4.24347 42.3783 4.27123 42.2117L4.64749 39.954H8.19502L8.57129 42.2117C8.59905 42.3783 8.68502 42.5297 8.8139 42.6388C8.94278 42.748 9.10621 42.8079 9.27512 42.8079H12.129C12.2326 42.8079 12.335 42.7854 12.429 42.7418C12.523 42.6982 12.6064 42.6347 12.6734 42.5556C12.7404 42.4766 12.7894 42.3839 12.8169 42.284C12.8444 42.1841 12.8498 42.0794 12.8328 41.9772L10.1174 25.6847H28.5387V42.0944C28.5387 42.2837 28.6138 42.4651 28.7476 42.5989C28.8814 42.7327 29.0629 42.8079 29.2521 42.8079H42.0945C42.2837 42.8079 42.4652 42.7327 42.599 42.5989C42.7328 42.4651 42.808 42.2837 42.808 42.0944V22.1174C42.808 21.9282 42.7328 21.7467 42.599 21.6129C42.4652 21.4791 42.2837 21.404 42.0945 21.404ZM29.9656 37.1002V34.2463H33.092L33.6083 35.2789C33.6675 35.3974 33.7586 35.497 33.8713 35.5667C33.984 35.6363 34.1139 35.6732 34.2464 35.6733H37.1003C37.2327 35.6732 37.3626 35.6363 37.4753 35.5667C37.588 35.497 37.6791 35.3974 37.7384 35.2789L38.2546 34.2463H41.381V37.1002H29.9656ZM33.092 29.9655L33.6083 30.9981C33.6675 31.1166 33.7586 31.2163 33.8713 31.2859C33.984 31.3556 34.1139 31.3925 34.2464 31.3925H37.1003C37.2327 31.3925 37.3626 31.3556 37.4753 31.2859C37.588 31.2163 37.6791 31.1166 37.7384 30.9981L38.2546 29.9655H41.381V32.8194H29.9656V29.9655H33.092ZM36.3868 15.6962H40.6676V21.404H36.3868V15.6962ZM11.4155 1.42693H31.3925C31.5817 1.42714 31.763 1.50238 31.8968 1.63613C32.0306 1.76989 32.1058 1.95124 32.106 2.1404V13.5558H10.702V2.1404C10.7023 1.95124 10.7775 1.76989 10.9113 1.63613C11.045 1.50238 11.2264 1.42714 11.4155 1.42693ZM10.702 15.6962V14.9828H32.106V15.6962C32.1058 15.8854 32.0306 16.0667 31.8968 16.2005C31.763 16.3342 31.5817 16.4095 31.3925 16.4097H11.4155C11.2264 16.4095 11.045 16.3342 10.9113 16.2005C10.7775 16.0667 10.7023 15.8854 10.702 15.6962ZM19.8018 17.8366H23.0063L24.026 21.404H18.7829L19.8018 17.8366ZM3.5674 14.2693C3.5674 14.0801 3.64257 13.8986 3.77637 13.7648C3.91017 13.631 4.09164 13.5558 4.28086 13.5558C4.47009 13.5558 4.65156 13.631 4.78536 13.7648C4.91916 13.8986 4.99433 14.0801 4.99433 14.2693V16.4097H3.5674V14.2693ZM2.24963 17.8366H6.3121L5.80251 21.404H2.75922L2.24963 17.8366ZM1.427 22.8309H41.381V24.2578H1.427V22.8309ZM2.963 41.381H1.55569L4.17179 25.6847H5.5791L2.963 41.381ZM6.42126 29.3114L7.48156 35.6733H5.36096L6.42126 29.3114ZM4.88526 38.5271L5.12311 37.1002H7.71941L7.95726 38.5271H4.88526ZM11.2868 41.381H9.87951L7.26341 25.6847H8.67072L11.2868 41.381ZM33.0921 25.6847L33.6084 26.7173C33.6676 26.8358 33.7587 26.9354 33.8714 27.0051C33.9841 27.0747 34.1139 27.1117 34.2464 27.1117H37.1003C37.2327 27.1117 37.3626 27.0748 37.4753 27.0051C37.588 26.9355 37.6791 26.8358 37.7384 26.7173L38.2546 25.6847H41.381V28.5386H29.9656V25.6847H33.0921ZM41.381 41.381H29.9656V38.5271H33.092L33.6083 39.5597C33.6675 39.6782 33.7586 39.7778 33.8713 39.8475C33.984 39.9171 34.1139 39.954 34.2464 39.954H37.1003C37.2327 39.954 37.3626 39.9171 37.4753 39.8475C37.588 39.7778 37.6791 39.6782 37.7384 39.5597L38.2546 38.5271H41.381V41.381Z" fill="#EB6320"/>
</svg>
